<?xml version="1.0" encoding="utf-8"?>
<svg xmlns="http://www.w3.org/2000/svg"
	xmlns:xlink="http://www.w3.org/1999/xlink"
	width="92px" height="92px" viewBox="0 0 46 46">
<path fillRule="evenodd" d="M 22.78 45.33C 10.3 45.33 0.28 35.3 0.28 22.82 0.28 10.34 10.3 0.32 22.78 0.32 35.26 0.32 45.29 10.34 45.29 22.82 45.29 35.3 35.26 45.33 22.78 45.33ZM 35.77 18.63C 35.77 18.63 26.98 9.83 26.98 9.83 26.77 9.63 26.57 9.53 26.26 9.53 25.95 9.53 25.75 9.63 25.55 9.83 25.55 9.83 9.79 25.59 9.79 25.59 9.59 25.79 9.49 26 9.49 26.3 9.49 26.3 9.49 35.1 9.49 35.1 9.49 35.71 9.89 36.12 10.51 36.12 10.51 36.12 19.31 36.12 19.31 36.12 19.61 36.12 19.82 36.02 20.02 35.82 20.02 35.82 35.77 20.06 35.77 20.06 35.98 19.86 36.08 19.65 36.08 19.35 36.08 19.04 35.98 18.83 35.77 18.63ZM 18.28 31.72C 18.08 31.93 17.77 31.93 17.57 31.72 17.57 31.72 13.88 27.94 13.88 27.94 13.68 27.73 13.68 27.43 13.88 27.22 13.88 27.22 25.85 15.25 25.85 15.25 25.95 15.15 26.16 15.15 26.26 15.15 26.47 15.15 26.57 15.15 26.67 15.25 26.67 15.25 30.25 18.94 30.25 18.94 30.35 19.04 30.35 19.14 30.35 19.35 30.35 19.55 30.35 19.65 30.25 19.76 30.25 19.76 18.28 31.72 18.28 31.72Z" fill="rgb(255,255,255)"/></svg>