<!DOCTYPE svg PUBLIC "-//W3C//DTD SVG 20010904//EN" "http://www.w3.org/TR/2001/REC-SVG-20010904/DTD/svg10.dtd">
<svg version="1.0" xmlns="http://www.w3.org/2000/svg" width="46px" height="47px" viewBox="0 0 460 470" preserveAspectRatio="xMidYMid meet">
<g id="layer1" fill="#ffffff" stroke="none">
 <path d="M181 459 c-164 -31 -237 -242 -129 -373 106 -128 321 -102 389 48 22 49 25 143 5 190 -42 100 -151 156 -265 135z m140 -44 c39 -21 87 -75 100 -113 18 -56 7 -136 -27 -184 -104 -148 -339 -89 -361 90 -18 158 148 278 288 207z"/>
 <path d="M134 303 c4 -54 -19 -139 -40 -147 -8 -3 -14 -12 -14 -21 0 -21 46 -19 59 3 6 9 11 11 11 5 0 -10 27 -13 100 -13 l100 0 0 33 c0 48 -27 97 -53 98 -20 1 -20 2 3 8 20 6 25 14 27 44 2 35 1 37 -28 37 -24 0 -30 -4 -25 -15 4 -12 -4 -15 -44 -15 -38 0 -50 4 -50 15 0 9 -9 15 -25 15 -24 0 -25 -2 -21 -47z m94 -30 c-10 -2 -26 -2 -35 0 -10 3 -2 5 17 5 19 0 27 -2 18 -5z m70 -68 c7 -14 12 -28 12 -30 0 -3 -34 -5 -75 -5 -77 0 -84 4 -65 41 9 15 22 19 64 19 47 0 54 -3 64 -25z"/>
 </g>

</svg>